<svg preserveAspectRatio="xMidYMid meet" data-bbox="-0.002 -0.038 244.228 32.04" viewBox="0 0 244.196 32" height="32" width="244.196" xmlns:xlink="http://www.w3.org/1999/xlink" xmlns="http://www.w3.org/2000/svg" data-type="ugc" role="presentation" aria-hidden="true">
    <g>
        <defs>
            <linearGradient gradientUnits="objectBoundingBox" x2=".5" y1="1" x1=".5" id="svgcid--l77fg8-nsxbcu">
                <stop stop-color="#ffa769" offset="0"></stop>
                <stop stop-color="#fd835e" offset=".37"></stop>
                <stop stop-color="#fc6254" offset=".777"></stop>
                <stop stop-color="#fc5651" offset="1"></stop>
            </linearGradient>
            <linearGradient xlink:href="#svgcid--l77fg8-nsxbcu" y2="-1.222" x2=".503" y1=".977" x1=".499" id="svgcid--2c555j-n4mvp0"></linearGradient>
            <linearGradient xlink:href="#svgcid--l77fg8-nsxbcu" y2="-1.22" x2=".503" y1=".979" x1=".499" id="svgcid--t5o1gzzd94y7"></linearGradient>
            <linearGradient xlink:href="#svgcid--l77fg8-nsxbcu" y2=".074" x2=".5" y1="2.047" x1=".498" id="svgcid-ide8hbq322qf"></linearGradient>
        </defs>
        <g>
            <g>
                <path fill="url(#svgcid--l77fg8-nsxbcu)" transform="translate(-468.25 -461.265)" d="M677.246 493.265h-11.465a11.862 11.862 0 0 1-11.849-11.849v-8.3a11.862 11.862 0 0 1 11.849-11.848h11.465a2.286 2.286 0 0 1 0 4.571h-11.465a7.286 7.286 0 0 0-7.277 7.277v8.3a7.286 7.286 0 0 0 7.277 7.278h11.465a2.286 2.286 0 0 1 0 4.571z"></path>
                <path fill="url(#svgcid--2c555j-n4mvp0)" transform="translate(-510.525 -486.998)" d="M728.243 519a2.285 2.285 0 0 1-1.713-3.8l8.219-9.319a2.286 2.286 0 1 1 3.428 3.024l-8.219 9.319a2.28 2.28 0 0 1-1.715.776z"></path>
                <path fill="url(#svgcid--t5o1gzzd94y7)" transform="translate(-533.221 -486.998)" d="M775.132 519a2.279 2.279 0 0 1-1.715-.774L765.2 508.9a2.286 2.286 0 1 1 3.428-3.024l8.219 9.319a2.286 2.286 0 0 1-1.713 3.8z"></path>
                <path fill="url(#svgcid-ide8hbq322qf)" transform="translate(-510.525 -461.265)" d="M740.34 476.745a7.771 7.771 0 0 1-5.825-2.629l-7.984-9.053a2.286 2.286 0 1 1 3.428-3.024l7.984 9.053a3.2 3.2 0 0 0 4.794 0l7.985-9.053a2.286 2.286 0 1 1 3.428 3.024l-7.984 9.053a7.771 7.771 0 0 1-5.826 2.629z"></path>
            </g>
            <g>
                <path fill="#8a7987" d="M23.764 32H11.592A11.607 11.607 0 0 1-.002 20.407v-8.813A11.607 11.607 0 0 1 11.592 0h12.17a1.443 1.443 0 1 1 0 2.886h-12.17a8.718 8.718 0 0 0-8.709 8.708v8.813a8.718 8.718 0 0 0 8.709 8.707h12.17a1.443 1.443 0 1 1 0 2.886z"></path>
                <path fill="#8a7987" d="M87.989 32a1.443 1.443 0 0 1-1.347-.926l-10.5-27.381a1.23 1.23 0 0 0-1.174-.807 1.23 1.23 0 0 0-1.175.807l-10.5 27.38a1.443 1.443 0 0 1-2.683-1.033l10.5-27.38A4.115 4.115 0 0 1 74.979 0a4.113 4.113 0 0 1 3.867 2.66l10.5 27.38A1.444 1.444 0 0 1 87.999 32z"></path>
                <path fill="#8a7987" d="M118.04 31.999a1.442 1.442 0 0 1-1.145-.565L97.162 5.696v24.861a1.443 1.443 0 1 1-2.886 0V1.443a1.443 1.443 0 0 1 2.588-.878l19.733 25.738V1.443a1.443 1.443 0 1 1 2.885 0v29.114A1.443 1.443 0 0 1 118.04 32z"></path>
                <path fill="#8a7987" d="M54.224 32a1.443 1.443 0 0 1-1.442-1.443V1.443a1.443 1.443 0 1 1 2.885 0v29.114A1.443 1.443 0 0 1 54.224 32z"></path>
                <path fill="#8a7987" d="M31.904 32a1.443 1.443 0 0 1-1.443-1.443V1.443a1.443 1.443 0 0 1 2.886 0v29.114A1.443 1.443 0 0 1 31.904 32z"></path>
                <path fill="#8a7987" d="M148.509 32h-14.421a9.354 9.354 0 0 1-9.343-9.343V9.344A9.354 9.354 0 0 1 134.088 0h14.42a1.443 1.443 0 1 1 0 2.886h-14.42a6.466 6.466 0 0 0-6.458 6.458v13.312a6.465 6.465 0 0 0 6.458 6.458h12.978V17.442h-9.717a1.443 1.443 0 1 1 0-2.885h11.16a1.443 1.443 0 0 1 1.443 1.442v14.557A1.443 1.443 0 0 1 148.509 32z"></path>
                <path fill="#8a7987" d="M178.977 2.886h-22.321a1.443 1.443 0 1 1 0-2.886h22.321a1.443 1.443 0 0 1 0 2.886z"></path>
                <path fill="#8a7987" d="M178.977 31.999h-16.853a6.918 6.918 0 0 1-6.911-6.911v-3.621a6.918 6.918 0 0 1 6.911-6.911h16.853a1.443 1.443 0 1 1 0 2.885h-16.853a4.029 4.029 0 0 0-4.025 4.025v3.621a4.029 4.029 0 0 0 4.025 4.025h16.853a1.443 1.443 0 0 1 0 2.886z"></path>
                <path fill="#8a7987" d="M54.225 17.442H31.904a1.443 1.443 0 1 1 0-2.885h22.321a1.443 1.443 0 1 1 0 2.885z"></path>
            </g>
        </g>
    </g>
</svg>